<mxfile host="Electron" modified="2024-05-30T08:51:29.108Z" agent="Mozilla/5.0 (X11; Linux x86_64) AppleWebKit/537.36 (KHTML, like Gecko) draw.io/22.1.2 Chrome/114.0.5735.289 Electron/25.9.4 Safari/537.36" etag="itq1Nk-1k1ks7YlzMJ5X" version="22.1.2" type="device">
  <diagram name="Page-1" id="c37626ed-c26b-45fb-9056-f9ebc6bb27b6">
    <mxGraphModel dx="-513" dy="1116" grid="1" gridSize="10" guides="1" tooltips="1" connect="1" arrows="1" fold="1" page="1" pageScale="1" pageWidth="1100" pageHeight="850" background="none" math="0" shadow="0">
      <root>
        <mxCell id="0" />
        <mxCell id="1" parent="0" />
        <mxCell id="d63S8sX3gjA3xNzIdsJP-1" value="LAN" style="ellipse;shape=cloud;whiteSpace=wrap;html=1;rounded=0;shadow=0;comic=0;strokeWidth=1;fontFamily=Verdana;fontSize=12;" vertex="1" parent="1">
          <mxGeometry x="2810" y="720" width="120" height="80" as="geometry" />
        </mxCell>
        <mxCell id="d63S8sX3gjA3xNzIdsJP-2" value="" style="shape=mxgraph.cisco.computers_and_peripherals.pc;sketch=0;html=1;pointerEvents=1;dashed=0;fillColor=#036897;strokeColor=#ffffff;strokeWidth=2;verticalLabelPosition=bottom;verticalAlign=top;align=center;outlineConnect=0;" vertex="1" parent="1">
          <mxGeometry x="2640" y="725" width="78" height="70" as="geometry" />
        </mxCell>
        <mxCell id="d63S8sX3gjA3xNzIdsJP-3" style="edgeStyle=none;html=1;labelBackgroundColor=none;startFill=0;endArrow=none;endFill=0;strokeWidth=2;fontFamily=Verdana;fontSize=12;entryX=0.083;entryY=0.5;entryDx=0;entryDy=0;entryPerimeter=0;" edge="1" parent="1" source="d63S8sX3gjA3xNzIdsJP-2" target="d63S8sX3gjA3xNzIdsJP-1">
          <mxGeometry relative="1" as="geometry">
            <mxPoint x="2650" y="760" as="sourcePoint" />
            <mxPoint x="2800" y="820" as="targetPoint" />
          </mxGeometry>
        </mxCell>
        <mxCell id="d63S8sX3gjA3xNzIdsJP-4" value="" style="shape=mxgraph.cisco.computers_and_peripherals.pc;sketch=0;html=1;pointerEvents=1;dashed=0;fillColor=#036897;strokeColor=#ffffff;strokeWidth=2;verticalLabelPosition=bottom;verticalAlign=top;align=center;outlineConnect=0;" vertex="1" parent="1">
          <mxGeometry x="3030" y="725" width="78" height="70" as="geometry" />
        </mxCell>
        <mxCell id="d63S8sX3gjA3xNzIdsJP-5" style="edgeStyle=none;html=1;labelBackgroundColor=none;startFill=0;endArrow=none;endFill=0;strokeWidth=2;fontFamily=Verdana;fontSize=12;entryX=0.875;entryY=0.5;entryDx=0;entryDy=0;entryPerimeter=0;" edge="1" source="d63S8sX3gjA3xNzIdsJP-4" parent="1" target="d63S8sX3gjA3xNzIdsJP-1">
          <mxGeometry relative="1" as="geometry">
            <mxPoint x="3200" y="775" as="sourcePoint" />
            <mxPoint x="3370" y="775" as="targetPoint" />
          </mxGeometry>
        </mxCell>
        <mxCell id="d63S8sX3gjA3xNzIdsJP-6" value="" style="shape=mxgraph.cisco.computers_and_peripherals.pc;sketch=0;html=1;pointerEvents=1;dashed=0;fillColor=#036897;strokeColor=#ffffff;strokeWidth=2;verticalLabelPosition=bottom;verticalAlign=top;align=center;outlineConnect=0;" vertex="1" parent="1">
          <mxGeometry x="2837" y="856" width="78" height="70" as="geometry" />
        </mxCell>
        <mxCell id="d63S8sX3gjA3xNzIdsJP-7" style="edgeStyle=none;html=1;labelBackgroundColor=none;startFill=0;endArrow=none;endFill=0;strokeWidth=2;fontFamily=Verdana;fontSize=12;entryX=0.55;entryY=0.95;entryDx=0;entryDy=0;entryPerimeter=0;" edge="1" source="d63S8sX3gjA3xNzIdsJP-6" parent="1" target="d63S8sX3gjA3xNzIdsJP-1">
          <mxGeometry relative="1" as="geometry">
            <mxPoint x="2921" y="936" as="sourcePoint" />
            <mxPoint x="2866.9999999999995" y="795.0000000000002" as="targetPoint" />
          </mxGeometry>
        </mxCell>
        <mxCell id="d63S8sX3gjA3xNzIdsJP-8" value="" style="shape=mxgraph.cisco.computers_and_peripherals.pc;sketch=0;html=1;pointerEvents=1;dashed=0;fillColor=#036897;strokeColor=#ffffff;strokeWidth=2;verticalLabelPosition=bottom;verticalAlign=top;align=center;outlineConnect=0;" vertex="1" parent="1">
          <mxGeometry x="2832" y="582" width="78" height="70" as="geometry" />
        </mxCell>
        <mxCell id="d63S8sX3gjA3xNzIdsJP-9" style="edgeStyle=none;html=1;labelBackgroundColor=none;startFill=0;endArrow=none;endFill=0;strokeWidth=2;fontFamily=Verdana;fontSize=12;entryX=0.503;entryY=0.108;entryDx=0;entryDy=0;entryPerimeter=0;" edge="1" source="d63S8sX3gjA3xNzIdsJP-8" parent="1" target="d63S8sX3gjA3xNzIdsJP-1">
          <mxGeometry relative="1" as="geometry">
            <mxPoint x="2915" y="635" as="sourcePoint" />
            <mxPoint x="2870" y="495" as="targetPoint" />
          </mxGeometry>
        </mxCell>
        <mxCell id="d63S8sX3gjA3xNzIdsJP-10" value="&lt;b&gt;224.1.1.1: 5555&lt;/b&gt;" style="text;html=1;align=center;verticalAlign=middle;resizable=0;points=[];autosize=1;strokeColor=none;fillColor=none;" vertex="1" parent="1">
          <mxGeometry x="2880" y="700" width="110" height="30" as="geometry" />
        </mxCell>
      </root>
    </mxGraphModel>
  </diagram>
</mxfile>
